<svg width="98" height="97" xmlns="http://www.w3.org/2000/svg" xmlns:xlink="http://www.w3.org/1999/xlink" xml:space="preserve" overflow="hidden"><g transform="translate(-842 -288)"><g><g><g><g><path d="M889 319.1 889 323.1C889.7 323.1 890.3 323 891 323 891.7 323 892.3 323 893 323.1L893 319.1C896.9 319.3 900.6 320.1 904 321.4L902.5 325C903.8 325.5 905 326 906.2 326.6L907.7 322.9C909.6 323.8 911.3 324.9 913 326.1L917.3 321.8C910 316.3 900.9 313 891 313 866.7 313 847 332.7 847 357L847 361 853 361 853 357C853 352.9 853.7 348.9 854.9 345.2L858.6 346.7C859 345.4 859.5 344.2 860 343L856.3 341.5C857.8 338.1 859.9 334.9 862.3 332.2L865.1 335C866 334 866.9 333 867.9 332.1L865.1 329.3C867.8 326.8 870.9 324.6 874.3 322.9L875.8 326.6C877 326 878.2 325.5 879.5 325L878 321.3C881.4 320 885.1 319.3 889 319.1Z" fill="#000000" fill-rule="nonzero" fill-opacity="1"/><path d="M927.1 331.8 922.8 336.1C923.9 337.8 924.9 339.6 925.7 341.4L922 343C922.5 344.2 923 345.5 923.4 346.7L927.1 345.2C928.3 348.9 929 352.9 929 357L929 361 935 361 935 357C935 347.6 932.1 339 927.1 331.8Z" fill="#000000" fill-rule="nonzero" fill-opacity="1"/><path d="M888.2 355.2C888 355.3 887.9 355.5 887.7 355.7 886.3 357.4 886.5 359.9 888.2 361.4 889.9 362.8 892.4 362.6 893.9 360.9L925 324 888.2 355.2Z" fill="#000000" fill-rule="nonzero" fill-opacity="1"/></g></g></g></g></g></svg>